<svg xmlns="http://www.w3.org/2000/svg" xmlns:xlink="http://www.w3.org/1999/xlink" viewBox="0,0,256,256" width="256px" height="256px" fill-rule="nonzero"><g fill-opacity="0" fill="#000000" fill-rule="nonzero" stroke="none" stroke-width="1" stroke-linecap="butt" stroke-linejoin="miter" stroke-miterlimit="10" stroke-dasharray="" stroke-dashoffset="0" font-family="none" font-weight="none" font-size="none" text-anchor="none" style="mix-blend-mode: normal"><path d="M0,256v-256h256v256z" id="bgRectangle"></path></g><g fill="#ffffff" fill-rule="nonzero" stroke="none" stroke-width="1" stroke-linecap="butt" stroke-linejoin="miter" stroke-miterlimit="10" stroke-dasharray="" stroke-dashoffset="0" font-family="none" font-weight="none" font-size="none" text-anchor="none" style="mix-blend-mode: normal"><g transform="scale(10.66667,10.66667)"><path d="M13,1v3h3v-3zM5,5v3h3v-3zM9,5v3h3v-3zM13,5v3h3v-3zM18.3125,7.84375c-0.375,0.03516 -1.02344,0.66406 -1.3125,1.1875c-0.73047,1.30859 -0.17187,2.95703 -0.03125,3.3125c-0.32422,0.41797 -1.96875,0.65625 -1.96875,0.65625h-14.03125c-0.82031,0.02734 -0.96875,1.24609 -0.96875,1.53125c-0.03516,4.96875 3.71094,7.45703 7.96875,7.46875c6.16406,0.01953 9.90234,-2.4375 12.0625,-6h2.96875c-0.50781,-0.12891 -1.17969,-0.33984 -1,-1c-0.19922,0.29297 -0.90625,0.58203 -1.75,0.625c0.08594,-0.14844 0.17188,-0.28516 0.25,-0.4375c1.32422,-0.07812 2.08594,-0.69922 2.65625,-1.25c0.65234,-0.62891 0.80469,-0.98437 0.84375,-1.34375c0.0625,-0.54297 -1.38281,-1.48047 -3.15625,-1.6875c-0.16797,-1.64453 -1.97266,-3.11719 -2.53125,-3.0625zM1,9v3h3v-3zM5,9v3h3v-3zM9,9v3h3v-3zM13,9v3h3v-3zM18.4375,9.9375c0.28906,0.32422 0.875,1.05469 1,1.71875c0.08203,0.43359 0.68359,0.77344 1.125,0.8125c0.6875,0.0625 1.10938,0.19531 1.5,0.3125c-0.12891,0.24609 -1.00781,0.76953 -2.28125,0.71875c-0.33984,-0.01562 -0.65234,0.1875 -0.78125,0.5c-0.07812,0.19922 -0.36719,0.63281 -0.78125,1.15625c-0.08594,-0.05078 -0.16797,-0.09766 -0.25,-0.15625c-0.45312,0.42578 -2.61328,1.30859 -4,0c-0.78125,0.91797 -3.21875,0.91797 -4,0c-0.25391,0.70313 -3.375,0.90234 -4,0c-0.17578,0.8125 -2.97656,1.19922 -4,0v0.5c-0.01953,-0.17187 -0.02344,-0.34375 0,-0.5c0,0 2.32031,0 4,0c1.67969,0 2.11328,0 4,0c1.88672,0 3.37109,0.00391 4,0c0.16406,0 1.01563,0 1.03125,0c2.03125,-0.125 3.01172,-1.23828 3.34375,-1.5c0.25391,-0.19922 0.50781,-0.71484 0.28125,-1.09375c-0.01562,-0.02734 -0.62109,-1.74609 -0.1875,-2.46875zM2.0625,16h15.40625c-1.73047,1.8125 -4.89844,4.10156 -9.5,4c-1.39453,-0.03125 -2.86719,-0.24609 -3.875,-1.03125c1.69922,-0.05859 3.1875,-0.375 3.1875,-0.375c0.43359,-0.08203 0.70703,-0.50391 0.625,-0.9375c-0.08203,-0.43359 -0.50391,-0.73828 -0.9375,-0.65625c-0.03516,0.00781 -2.30078,0.5625 -4.375,0.3125c-0.11719,-0.21484 -0.375,-0.74219 -0.53125,-1.3125zM8.4375,17c-0.25781,0 -0.46875,0.21094 -0.46875,0.46875c0,0.25781 0.21094,0.46875 0.46875,0.46875c0.25781,0 0.46875,-0.21094 0.46875,-0.46875c0,-0.0625 -0.00781,-0.10156 -0.03125,-0.15625c-0.03125,0.05859 -0.11719,0.09375 -0.1875,0.09375c-0.10547,0 -0.15625,-0.11328 -0.15625,-0.21875c0,-0.07031 0.00391,-0.09375 0.0625,-0.125c-0.05078,-0.01953 -0.09766,-0.0625 -0.15625,-0.0625z"></path></g></g></svg>