<?xml version="1.0" encoding="UTF-8"?>
<svg viewBox="0 0 978 124" version="1.1" xmlns="http://www.w3.org/2000/svg" xmlns:xlink="http://www.w3.org/1999/xlink">
    <!-- Generator: Sketch 58 (84663) - https://sketch.com -->
    <title>FACE Prep</title>
    <desc>Created with Sketch.</desc>
    <defs>
        <polygon id="path-1" points="4.5086157e-13 0 364 0 310.666428 124 7.03437308e-13 124"></polygon>
    </defs>
    <g id="Logo" stroke="none" stroke-width="1" fill="none" fill-rule="evenodd">
        <g id="FACE-Prep" transform="translate(-20.000000, -20.000000)">
            <g transform="translate(20.000000, 20.000000)">
                <path d="M164,3 L243.07024,3 L243.07024,27 L189.968331,27 L189.968331,51 L239.075112,51 L239.075112,75 L189.968331,75 L189.968331,121 L164,121 L164,3 Z M291.344702,3 L312.818514,3 L364.089322,121 L334.791717,121 L324.637434,96 L278.859927,96 L269.038571,121 L240.406821,121 L291.344702,3 Z M301.332521,37.3333333 L287.016646,74 L315.81486,74 L301.332521,37.3333333 Z M452.980918,33.6666667 C450.428462,30.55554 447.293428,28.166675 443.575721,26.5 C439.858014,24.833325 435.557745,24 430.674787,24 C425.791828,24 421.269611,24.944435 417.107998,26.8333333 C412.946386,28.7222317 409.339709,31.3610942 406.28786,34.75 C403.236011,38.1389058 400.850056,42.1666433 399.129923,46.8333333 C397.40979,51.5000233 396.549736,56.5555283 396.549736,62 C396.549736,67.5555833 397.40979,72.6388658 399.129923,77.25 C400.850056,81.8611342 403.208268,85.8610942 406.204629,89.25 C409.200989,92.6389058 412.724435,95.2777683 416.775071,97.1666667 C420.825707,99.055565 425.181463,100 429.842469,100 C435.169332,100 439.885756,98.8889 443.99188,96.6666667 C448.098004,94.4444333 451.482731,91.3333533 454.146163,87.3333333 L475.786439,103.5 C470.792504,110.500035 464.466949,115.66665 456.809582,119 C449.152215,122.33335 441.273014,124 433.171742,124 C423.960706,124 415.471145,122.55557 407.702801,119.666667 C399.934458,116.777763 393.220491,112.638916 387.560698,107.25 C381.900906,101.861084 377.489663,95.3333717 374.326837,87.6666667 C371.164012,79.9999617 369.582623,71.4444917 369.582623,62 C369.582623,52.5555083 371.164012,44.0000383 374.326837,36.3333333 C377.489663,28.6666283 381.900906,22.1389158 387.560698,16.75 C393.220491,11.3610842 399.934458,7.22223667 407.702801,4.33333333 C415.471145,1.44443 423.960706,0 433.171742,0 C436.501032,0 439.96899,0.3055525 443.575721,0.916666667 C447.182451,1.52778083 450.733641,2.5 454.229395,3.83333333 C457.725149,5.16667333 461.082133,6.94443333 464.300447,9.16666667 C467.51876,11.3889 470.404101,14.111095 472.956557,17.3333333 L452.980918,33.6666667 Z M490.934633,3 L571.003654,3 L571.003654,27 L516.902964,27 L516.902964,49 L568.007308,49 L568.007308,73 L516.902964,73 L516.902964,97 L574,97 L574,121 L490.934633,121 L490.934633,3 Z" id="FACE" fill="#000000"></path>
                <g id="Group-2" fill="#F05136" fill-rule="nonzero">
                    <path d="M52,52 L26,52 L26,78 L0,78 L0,0 L52,0 L78,0 L78,26 L52,26 L52,52 Z" id="Combined-Shape"></path>
                    <path d="M20,124 L20,98 L46,98 L46,72 L71.999,71.999 L72,46 L98,46 L98,20 L124,20 L124,98 L124,124 L98,124 L20,124 Z" id="Combined-Shape"></path>
                </g>
                <g id="Prep" transform="translate(614.000000, 0.000000)">
                    <mask id="mask-2" fill="white">
                        <use xlink:href="#path-1"></use>
                    </mask>
                    <use id="Mask" fill="#F05136" xlink:href="#path-1"></use>
                    <path d="M15.9924047,14 L51.4805502,14 C56.4282251,14 61.1059567,14.4499955 65.5138853,15.35 C69.9218139,16.2500045 73.767449,17.802489 77.050906,20.0075 C80.334363,22.212511 82.9430979,25.1824813 84.877189,28.9175 C86.8112801,32.6525187 87.7783112,37.3549717 87.7783112,43.025 C87.7783112,48.6050279 86.8787474,53.2849811 85.0795929,57.065 C83.2804384,60.8450189 80.806638,63.8599888 77.6581176,66.11 C74.5095972,68.3600113 70.7764075,69.9574953 66.4584367,70.9025 C62.1404658,71.8475047 57.4627342,72.32 52.4251016,72.32 L37.0424073,72.32 L37.0424073,109.58 L15.9924047,109.58 L15.9924047,14 Z M37.0424073,54.5 L51.0757424,54.5 C52.9648547,54.5 54.7864713,54.32 56.540647,53.96 C58.2948226,53.5999982 59.8690592,52.9925043 61.263404,52.1375 C62.6577487,51.2824957 63.7822034,50.1125074 64.6368018,48.6275 C65.4914002,47.1424926 65.918693,45.2750113 65.918693,43.025 C65.918693,40.5949879 65.3564657,38.6375074 64.2319941,37.1525 C63.1075225,35.6674926 61.6682205,34.5200041 59.9140448,33.71 C58.1598692,32.899996 56.203318,32.3825011 54.0443326,32.1575 C51.8853471,31.9324989 49.8163505,31.82 47.8372805,31.82 L37.0424073,31.82 L37.0424073,54.5 Z M98.4382484,43.97 L118.678636,43.97 L118.678636,54.5 L118.948507,54.5 C121.107493,50.4499798 123.67125,47.4125101 126.639855,45.3875 C129.60846,43.3624899 133.341649,42.35 137.839535,42.35 C139.008986,42.35 140.178419,42.3949996 141.347869,42.485 C142.51732,42.5750005 143.596796,42.7549987 144.586331,43.025 L144.586331,61.52 C143.147008,61.0699977 141.730195,60.7325011 140.33585,60.5075 C138.941505,60.2824989 137.479714,60.17 135.950433,60.17 C132.08225,60.17 129.023734,60.7099946 126.77479,61.79 C124.525847,62.8700054 122.794187,64.3774903 121.579758,66.3125 C120.365328,68.2475097 119.57821,70.5649865 119.218379,73.265 C118.858548,75.9650135 118.678636,78.9349838 118.678636,82.175 L118.678636,109.58 L98.4382484,109.58 L98.4382484,43.97 Z M212.99884,98.24 C209.760362,102.380021 205.667347,105.574989 200.719672,107.825 C195.771997,110.075011 190.644483,111.2 185.336977,111.2 C180.299345,111.2 175.554146,110.390008 171.101238,108.77 C166.648331,107.149992 162.780207,104.832515 159.49675,101.8175 C156.213293,98.8024849 153.627047,95.1800212 151.737935,90.95 C149.848822,86.7199789 148.90428,81.9950261 148.90428,76.775 C148.90428,71.5549739 149.848822,66.8300211 151.737935,62.6 C153.627047,58.3699789 156.213293,54.7475151 159.49675,51.7325 C162.780207,48.7174849 166.648331,46.4000081 171.101238,44.78 C175.554146,43.1599919 180.299345,42.35 185.336977,42.35 C190.014779,42.35 194.265218,43.1599919 198.088421,44.78 C201.911625,46.4000081 205.150054,48.7174849 207.803807,51.7325 C210.45756,54.7475151 212.504068,58.3699789 213.943391,62.6 C215.382715,66.8300211 216.102366,71.5549739 216.102366,76.775 L216.102366,83.12 L169.144668,83.12 C169.954287,86.9900194 171.708436,90.0724885 174.407168,92.3675 C177.1059,94.6625115 180.434286,95.81 184.392426,95.81 C187.720862,95.81 190.531999,95.0675074 192.825921,93.5825 C195.119843,92.0974926 197.121372,90.1850117 198.830569,87.845 L212.99884,98.24 Z M195.861979,69.35 C195.951936,65.9299829 194.827482,63.0050122 192.488581,60.575 C190.14968,58.1449879 187.136141,56.93 183.447875,56.93 C181.198931,56.93 179.219891,57.2899964 177.510694,58.01 C175.801498,58.7300036 174.339706,59.6524944 173.125277,60.7775 C171.910848,61.9025056 170.966306,63.2074926 170.291623,64.6925 C169.61694,66.1775074 169.234625,67.7299919 169.144668,69.35 L195.861979,69.35 Z M230.270637,43.97 L248.891793,43.97 L248.891793,52.61 L249.161665,52.61 C249.971284,51.4399942 251.028272,50.2475061 252.332659,49.0325 C253.637046,47.8174939 255.166304,46.7150049 256.92048,45.725 C258.674656,44.7349951 260.586229,43.9250032 262.655256,43.295 C264.724284,42.6649969 266.928215,42.35 269.267116,42.35 C274.124833,42.35 278.532696,43.1824917 282.490836,44.8475 C286.448976,46.5125083 289.844829,48.8524849 292.678497,51.8675 C295.512166,54.8825151 297.693608,58.4599793 299.222889,62.6 C300.75217,66.7400207 301.5168,71.2849753 301.5168,76.235 C301.5168,80.825023 300.819638,85.2124791 299.425293,89.3975 C298.030948,93.5825209 296.051908,97.2949838 293.488113,100.535 C290.924318,103.775016 287.798334,106.36249 284.110067,108.2975 C280.4218,110.23251 276.238828,111.2 271.561027,111.2 C267.333014,111.2 263.397422,110.547507 259.754134,109.2425 C256.110846,107.937493 253.119797,105.710016 250.780896,102.56 L250.511024,102.56 L250.511024,140.36 L230.270637,140.36 L230.270637,43.97 Z M248.891793,76.775 C248.891793,81.7250247 250.308606,85.7299847 253.142274,88.79 C255.975943,91.8500153 259.956512,93.38 265.084103,93.38 C270.211693,93.38 274.192263,91.8500153 277.025931,88.79 C279.8596,85.7299847 281.276413,81.7250247 281.276413,76.775 C281.276413,71.8249753 279.8596,67.8200153 277.025931,64.76 C274.192263,61.6999847 270.211693,60.17 265.084103,60.17 C259.956512,60.17 255.975943,61.6999847 253.142274,64.76 C250.308606,67.8200153 248.891793,71.8249753 248.891793,76.775 Z" fill="#FFFFFF" fill-rule="nonzero" mask="url(#mask-2)"></path>
                </g>
            </g>
        </g>
    </g>
</svg>