<svg xmlns="http://www.w3.org/2000/svg" xmlns:xlink="http://www.w3.org/1999/xlink" viewBox="0,0,256,256" width="256px" height="256px" fill-rule="nonzero"><g fill-opacity="0" fill="#000000" fill-rule="nonzero" stroke="none" stroke-width="1" stroke-linecap="butt" stroke-linejoin="miter" stroke-miterlimit="10" stroke-dasharray="" stroke-dashoffset="0" font-family="none" font-weight="none" font-size="none" text-anchor="none" style="mix-blend-mode: normal"><path d="M0,256v-256h256v256z" id="bgRectangle"></path></g><g fill="#ffffff" fill-rule="nonzero" stroke="none" stroke-width="1" stroke-linecap="butt" stroke-linejoin="miter" stroke-miterlimit="10" stroke-dasharray="" stroke-dashoffset="0" font-family="none" font-weight="none" font-size="none" text-anchor="none" style="mix-blend-mode: normal"><g transform="scale(10.66667,10.66667)"><path d="M20.29297,11.79297l-8.08594,-8.08594c-0.39062,-0.39062 -1.02344,-0.39062 -1.41406,0l-1.69141,1.6875l1.75391,1.75391c0.19531,-0.08984 0.41406,-0.14844 0.64453,-0.14844c0.82813,0 1.5,0.67188 1.5,1.5c0,0.23047 -0.05859,0.44531 -0.15234,0.64453l2.00781,2.00391c0.19531,-0.08984 0.41406,-0.14844 0.64453,-0.14844c0.82813,0 1.5,0.67188 1.5,1.5c0,0.82813 -0.67187,1.5 -1.5,1.5c-0.82812,0 -1.5,-0.67187 -1.5,-1.5c0,-0.23047 0.05469,-0.44531 0.14844,-0.64453l-2.00781,-2.00391c-0.04297,0.01953 -0.09375,0.03906 -0.14062,0.05469v5.1875c0.57813,0.20703 1,0.75391 1,1.40625c0,0.82813 -0.67187,1.5 -1.5,1.5c-0.82812,0 -1.5,-0.67187 -1.5,-1.5c0,-0.65234 0.41797,-1.20312 1,-1.40625v-5.1875c-0.58203,-0.20703 -1,-0.75391 -1,-1.40625c0,-0.23047 0.05469,-0.44531 0.14844,-0.64453l-1.75391,-1.75l-5.6875,5.6875c-0.39062,0.39063 -0.39062,1.02344 0,1.41406l8.08594,8.08594c0.39063,0.39063 1.02344,0.39063 1.41406,0l8.08594,-8.08594c0.39063,-0.39062 0.39063,-1.02344 0,-1.41406z"></path></g></g></svg>