<svg version="1.1" xmlns="http://www.w3.org/2000/svg" xmlns:xlink="http://www.w3.org/1999/xlink" width="256px" height="256px" viewBox="0,0,256,256"><g fill-opacity="0" fill="#000000" fill-rule="nonzero" stroke="none" stroke-width="1" stroke-linecap="butt" stroke-linejoin="miter" stroke-miterlimit="10" stroke-dasharray="" stroke-dashoffset="0" font-family="none" font-weight="none" font-size="none" text-anchor="none" style="mix-blend-mode: normal"><path d="M0,256v-256h256v256z" id="bgRectangle"></path></g><g fill="#ffffff" fill-rule="nonzero" stroke="none" stroke-width="1" stroke-linecap="butt" stroke-linejoin="miter" stroke-miterlimit="10" stroke-dasharray="" stroke-dashoffset="0" font-family="none" font-weight="none" font-size="none" text-anchor="none" style="mix-blend-mode: normal"><g transform="scale(5.12,5.12)"><path d="M11.94727,8c-0.04257,0.00185 -0.08497,0.00642 -0.12695,0.01367l-11,2.00195c-0.31276,0.05698 -0.5798,0.25927 -0.71935,0.54491c-0.13955,0.28565 -0.13497,0.62062 0.01232,0.90235l12,23c0.21866,0.41808 0.69976,0.62647 1.1543,0.5l10.79883,-3l6.06641,10.53516c0.24332,0.42347 0.75692,0.60925 1.21484,0.43945l17.00586,-6.28516c0.28846,-0.10665 0.5118,-0.34008 0.60562,-0.63296c0.09381,-0.29288 0.04766,-0.61264 -0.12515,-0.86704l-5.74414,-8.47266l6.17773,-1.7168c0.31175,-0.08633 0.5625,-0.31812 0.67302,-0.62215c0.11052,-0.30402 0.06716,-0.64272 -0.11637,-0.9091l-5.49805,-7.97461c-0.23955,-0.34668 -0.6707,-0.50602 -1.07812,-0.39844l-7.50195,1.97461c-0.31357,0.08245 -0.56771,0.31179 -0.68181,0.61528c-0.1141,0.30349 -0.07399,0.64346 0.10759,0.91206l4.70313,6.9375l-14.84766,4.12305l-12.16211,-21.12109c-0.18761,-0.32604 -0.5423,-0.51923 -0.91797,-0.5zM11.48438,10.10742l11.55273,20.06641l-9.52539,2.64648l-10.99609,-21.08008zM43.07813,17.16992l4.30078,6.24219l-5.4707,1.52148l-4.28906,-6.32617zM41.05664,27.24414l5.40625,7.97461l-15.01758,5.55078l-5.38867,-9.35937z"></path></g></g></svg>