<svg version="1.1" xmlns="http://www.w3.org/2000/svg" xmlns:xlink="http://www.w3.org/1999/xlink" width="64" height="64" viewBox="0,0,256,256"><g fill="#ffffff" fill-rule="nonzero" stroke="none" stroke-width="1" stroke-linecap="butt" stroke-linejoin="miter" stroke-miterlimit="10" stroke-dasharray="" stroke-dashoffset="0" font-family="none" font-weight="none" font-size="none" text-anchor="none" style="mix-blend-mode: normal"><g transform="scale(15.11841,15.11841)"><g><path transform="translate(-596.515,-431.896) scale(0.26458,0.26458)" d="M2286.5469,1658.3622c-3.3019,0 -6,2.6982 -6,6c0,3.3017 2.6981,6 6,6c3.3018,0 6,-2.6983 6,-6c0,-3.3018 -2.6982,-6 -6,-6z"></path><path transform="translate(-596.515,-431.896) scale(0.26458,0.26458)" d="M2258.5466,1664.3624c0,1.8507 0.9303,3.5596 2.4277,5.0019c1.4975,1.4423 3.5782,2.6723 6.1035,3.7012c5.0507,2.0574 11.9031,3.2969 19.4688,3.2969c7.5657,0 14.4182,-1.2395 19.4687,-3.2969c2.5254,-1.0289 4.6061,-2.2589 6.1036,-3.7012c1.4974,-1.4423 2.4277,-3.1512 2.4277,-5.0019c0,-1.8507 -0.9303,-3.5616 -2.4277,-5.0039c-1.4975,-1.4425 -3.5782,-2.6725 -6.1036,-3.7013c-5.0505,-2.0574 -11.903,-3.2948 -19.4687,-3.2948c-7.5657,0 -14.4181,1.2374 -19.4688,3.2948c-2.5253,1.0288 -4.606,2.2588 -6.1035,3.7013c-1.4974,1.4423 -2.4277,3.1532 -2.4277,5.0039zM2260.5486,1664.3624c0,-1.1865 0.5814,-2.3713 1.8164,-3.5606c1.2349,-1.1894 3.1082,-2.3275 5.4687,-3.289c4.721,-1.9234 11.3676,-3.1486 18.7129,-3.1486c7.3453,0 13.9919,1.2252 18.7129,3.1486c2.3605,0.9615 4.2338,2.0996 5.4687,3.289c1.235,1.1893 1.8164,2.3741 1.8164,3.5606c0,1.1864 -0.5814,2.3691 -1.8164,3.5586c-1.2349,1.1893 -3.1082,2.3294 -5.4687,3.291c-4.721,1.9232 -11.3676,3.1465 -18.7129,3.1465c-7.3453,0 -13.9919,-1.2233 -18.7129,-3.1465c-2.3605,-0.9616 -4.2338,-2.1017 -5.4687,-3.291c-1.235,-1.1895 -1.8164,-2.3722 -1.8164,-3.5586z"></path><path transform="translate(-596.515,-431.896) scale(0.26458,0.26458)" d="M2301.1426,1689.6191c1.6121,-0.9298 2.6028,-2.63 3.0651,-4.6966c0.4623,-2.0666 0.4378,-4.5519 0.01,-7.3392c-0.8588,-5.5746 -3.3625,-12.3717 -7.3075,-19.1976c-3.945,-6.8259 -8.5857,-12.3906 -12.9889,-15.9208c-2.2016,-1.7652 -4.3439,-3.029 -6.3666,-3.6624c-2.0227,-0.6333 -3.992,-0.6264 -5.6041,0.3034c-1.6121,0.9299 -2.6011,2.6291 -3.0634,4.6957c-0.4622,2.0666 -0.4378,4.5519 -0.01,7.3391c0.8589,5.5746 3.3626,12.3718 7.3076,19.1977c3.945,6.8259 8.5856,12.3905 12.9888,15.9207c2.2016,1.7653 4.3439,3.029 6.3666,3.6624c2.0227,0.6334 3.9904,0.6274 5.6024,-0.3024zM2300.1399,1687.8842c-1.0096,0.5824 -2.3276,0.6511 -4.0032,0.1264c-1.6757,-0.5247 -3.6427,-1.6532 -5.7099,-3.3107c-4.1346,-3.3148 -8.6683,-8.7181 -12.5079,-15.3617c-3.8396,-6.6437 -6.2569,-13.2676 -7.0634,-18.5021c-0.4032,-2.6171 -0.398,-4.8831 -0.015,-6.5951c0.383,-1.7119 1.1016,-2.8178 2.1112,-3.4002c1.0097,-0.5822 2.3277,-0.6509 4.0033,-0.1264c1.6756,0.5247 3.6443,1.6523 5.7116,3.3096c4.1345,3.3149 8.6665,8.7192 12.5061,15.3629c3.8396,6.6436 6.2587,13.2665 7.0651,18.5009c0.4032,2.6173 0.3963,4.8842 0.013,6.5962c-0.383,1.7119 -1.1015,2.8178 -2.1112,3.4002z"></path><path transform="translate(-596.515,-431.896) scale(0.26458,0.26458)" d="M2271.9507,1689.6191c-1.6121,-0.9299 -2.6028,-2.6301 -3.0652,-4.6968c-0.4623,-2.0667 -0.4387,-4.5503 -0.01,-7.3377c0.8588,-5.5748 3.3636,-12.3738 7.3086,-19.2c3.9451,-6.8261 8.5857,-12.3909 12.989,-15.9213c2.2017,-1.7652 4.343,-3.0274 6.3657,-3.6608c2.0228,-0.6333 3.9921,-0.6264 5.6043,0.3035c1.6121,0.9298 2.6011,2.6291 3.0634,4.6958c0.4622,2.0666 0.4388,4.5503 0.01,7.3377c-0.8589,5.5747 -3.3626,12.372 -7.3077,19.1982c-3.945,6.8261 -8.5867,12.3926 -12.99,15.9229c-2.2016,1.7654 -4.3431,3.0275 -6.3657,3.6609c-2.0227,0.6334 -3.9904,0.6274 -5.6025,-0.3024zM2272.9534,1687.8841c1.0097,0.5823 2.3267,0.6528 4.0023,0.128c1.6757,-0.5245 3.6437,-1.655 5.711,-3.3123c4.1346,-3.3149 8.6683,-8.7185 12.508,-15.3624c3.8397,-6.6438 6.2561,-13.2661 7.0625,-18.5007c0.4032,-2.6174 0.399,-4.8851 0.016,-6.5972c-0.3829,-1.712 -1.1015,-2.8178 -2.1111,-3.4002c-1.0097,-0.5823 -2.3277,-0.6511 -4.0033,-0.1264c-1.6757,0.5247 -3.6454,1.6539 -5.7127,3.3115c-4.1346,3.3149 -8.6657,8.7176 -12.5053,15.3615c-3.8397,6.6439 -6.2588,13.267 -7.0653,18.5016c-0.4032,2.6172 -0.3973,4.8859 -0.014,6.598c0.383,1.7119 1.1025,2.8162 2.1122,3.3986z"></path></g></g></g></svg>