<svg version="1.1" xmlns="http://www.w3.org/2000/svg" xmlns:xlink="http://www.w3.org/1999/xlink" width="256px" height="256px" viewBox="0,0,256,256"><g fill="#ffffff" fill-rule="nonzero" stroke="none" stroke-width="1" stroke-linecap="butt" stroke-linejoin="miter" stroke-miterlimit="10" stroke-dasharray="" stroke-dashoffset="0" font-family="none" font-weight="none" font-size="none" text-anchor="none" style="mix-blend-mode: normal"><g transform="scale(10.66667,10.66667)"><path d="M22.5,18v-12l-10.5,-6l-10.5,6v12l10.5,6zM8.636,16.589c0,0.721 -0.576,1.29 -1.287,1.29h-0.076c-0.728,0 -1.303,-0.6 -1.303,-1.29v-9.179c0,-0.705 0.636,-1.29 1.515,-1.29c0.653,0 1.394,0.255 1.848,0.81l6.03,7.141v-6.661c0,-0.721 0.606,-1.29 1.303,-1.29h0.076c0.727,0 1.303,0.6 1.303,1.29v9.18h0.015c0,0.705 -0.653,1.29 -1.544,1.29c-0.637,0 -1.365,-0.255 -1.819,-0.81l-6.061,-7.141z"></path></g></g></svg>